<svg version="1.1" id="Layer_1" xmlns="http://www.w3.org/2000/svg" x="0" y="0" viewBox="0 0 1705.69 1097.97" xml:space="preserve"><style>.st0{display:none}.st2{display:inline}.st3{fill:#fff}.st6{fill:#6883de}</style><g id="bg_x5F_obj"><g class="st0"><path d="M-571.85 844.69c220.11-22.03 391.97-207.8 391.97-433.72 0-225.91-171.86-411.69-391.97-433.72v867.44z" fill="#eff1fd"/><g class="st2"><path class="st3" d="M-554.18-20.61c-2.66-.38-5.33-.73-8.01-1.06l-9.66 48.09v40.96l17.67-87.99zm31.02 5.55c-2.62-.57-5.26-1.12-7.9-1.64l-40.8 203.13v40.96l48.7-242.45zm30.57 7.78c-2.58-.76-5.18-1.5-7.78-2.21l-71.48 355.91v40.96l79.26-394.66zm30.12 10.08c-2.54-.96-5.1-1.89-7.67-2.8l-101.71 506.43v40.96L-462.47 2.8zm29.64 12.41c-2.5-1.16-5.01-2.3-7.54-3.41l-131.48 654.64v40.96l139.02-692.19zm21.74 10.82l-160.76 800.41v18.25c1.56-.16 3.11-.32 4.66-.49l163.51-814.12c-2.46-1.38-4.93-2.73-7.41-4.05zm36.04 21.49a430.6 430.6 0 00-7.28-4.72l-160.26 797.95c2.85-.48 5.7-.99 8.53-1.53l159.01-791.7zm28.07 20.27c-2.36-1.85-4.73-3.67-7.13-5.47L-509.04 833.7c2.91-.73 5.8-1.49 8.68-2.28l153.38-763.63zm27.43 23.41c-2.3-2.13-4.62-4.23-6.96-6.31l-148.36 738.7c2.97-1.01 5.92-2.06 8.86-3.13L-319.55 91.2zm26.71 27a425.36 425.36 0 00-6.76-7.29L-440 809.97c3.04-1.34 6.05-2.71 9.05-4.12l138.11-687.65zm25.85 31.3c-2.14-2.85-4.32-5.68-6.52-8.48l-130.79 651.2c3.12-1.74 6.22-3.51 9.3-5.32l128.01-637.4zm24.76 36.71c-2.03-3.37-4.1-6.71-6.22-10.01l-119.13 593.14c3.23-2.24 6.44-4.53 9.61-6.86l115.74-576.27zm23.28 44.14a437.72 437.72 0 00-5.78-12.18l-104.74 521.49c3.39-2.96 6.74-5.97 10.04-9.03l100.48-500.28zm20.92 55.79a441.2 441.2 0 00-5.05-15.82l-86.27 429.52c3.67-4.14 7.25-8.35 10.76-12.63l80.56-401.07zm15.93 80.7c-.84-8.37-1.92-16.67-3.23-24.89l-60.03 298.9c4.38-7.05 8.57-14.23 12.55-21.54l50.71-252.47z"/></g></g><g class="st0"><g class="st2"><linearGradient id="SVGID_1_" gradientUnits="userSpaceOnUse" x1="8937.869" y1="-414.535" x2="9400.856" y2="-414.535" gradientTransform="scale(-1 1) rotate(15.504 -647.442 -32109.27)"><stop offset="0" stop-color="#ff636e"/><stop offset="1" stop-color="#f98d6c"/></linearGradient><path d="M-265.73 1122.36l-284.76.25c3.29-18.96 11.46-41.42 27.92-67.19 171.71-125.82 341.14-102.99 401.43-76.12-46.13 65.01-95.98 110.83-144.59 143.06z" fill="url(#SVGID_1_)"/><path class="st3" d="M-149.4 988.96l-28.07 8.67c8.02 7.91 16.99 14.73 26.62 20.38-.81.97-1.61 1.93-2.42 2.89a141.408 141.408 0 01-28.25-22.01c-12.09 3.73-24.18 7.47-36.26 11.2-.37.37-.91.51-1.45.45-10.28 3.18-20.56 6.35-30.84 9.54l-3.35 1.05c9.28 15.94 24.7 26.59 40.84 34.82 6.07 3.09 12.28 5.96 18.57 8.63-1.09 1.05-2.18 2.09-3.27 3.13-23.88-9.82-47.18-23.46-59.8-45.42-20.66 6.5-41.15 13.38-61.46 20.75 20.32 28.62 53.33 43.62 85.71 55.49-1.16.91-2.31 1.82-3.47 2.71-32.63-12.16-65.68-27.64-85.91-56.86-8.85 3.24-17.67 6.57-26.45 10.01-.05.06-.11.12-.16.19-.54.65-1.26.78-1.9.62-5.39 2.12-10.76 4.29-16.12 6.5 21.64 23.57 46.48 43.95 73.54 60.69l-7.04.01c-25.76-16.55-49.43-36.4-70.18-59.15-14.48 6.03-28.85 12.34-43.09 19.05-3.35 1.58-6.7 3.18-10.04 4.79 6.57 13.45 15.6 25.12 26.14 35.39h-5.25c-9.7-9.89-18.03-21.03-24.28-33.74-14.43 7.04-28.71 14.4-42.82 22.05 1.46 4.01 3.09 7.92 4.86 11.74h-4.15c-1.46-3.24-2.82-6.54-4.05-9.91-5.94 3.25-11.85 6.57-17.73 9.93l-7.65.01c4.9-2.84 9.81-5.64 14.76-8.41 21.75-12.15 43.91-23.58 66.43-34.25a696.934 696.934 0 0175.05-109.47c2.02-.48 4.04-.95 6.04-1.4a691.099 691.099 0 00-75.25 108.13c12.94-6.04 26.01-11.81 39.18-17.36.4-.86 1.53-1.43 2.53-1.07 6.38-2.67 12.77-5.3 19.2-7.85 27.17-32.2 56.05-62.9 86.51-91.97 1.94-.11 3.86-.21 5.77-.29a1166.43 1166.43 0 00-84.86 89.35c5.4-2.1 10.81-4.16 16.24-6.18 34.89-12.92 70.42-24.15 106.05-35.02 1.14-17.87 8.53-33.15 18.87-46.68 1.48.14 2.93.3 4.38.46-10.34 13.04-17.88 27.77-19.4 45.04 22.1-6.73 44.22-13.34 66.25-20.14 2.29-.69 3.76 2.8 1.43 3.51z"/></g><g class="st2"><linearGradient id="SVGID_2_" gradientUnits="userSpaceOnUse" x1="9530.017" y1="702.356" x2="9396.676" y2="270.791" gradientTransform="scale(-1 1) rotate(5.123 625.589 -99220.384)"><stop offset="0" stop-color="#ff636e"/><stop offset="1" stop-color="#f98d6c"/></linearGradient><path d="M-571.45 737.59c23.83-36.37 49.17-61.55 67.92-74.73 117.81 267.65-21.19 442.31-26.17 449.72 0 0-17.8 3.4-41.43-7.31l-.32-367.68z" fill="url(#SVGID_2_)"/><path class="st3" d="M-571.19 1025.57a1080.9 1080.9 0 014.4-68.25c-1.51-2.6-3-5.21-4.47-7.82l-.01-7.47c1.68 3.05 3.37 6.08 5.1 9.11 1.4-13.68 3.09-27.33 5.02-40.94-.51-.75-.43-1.97.37-2.62.95-6.59 1.93-13.17 3-19.74-4.8-13.98-9.32-28.06-13.57-42.21l-.01-12.95c4.6 15.97 9.54 31.84 14.85 47.6.94-5.5 1.9-10.99 2.92-16.47 6.56-35.2 14.84-70.1 23.46-104.91-14.19-9.77-23.17-23.42-29.24-38.65.85-1.15 1.7-2.28 2.54-3.39 5.66 14.98 14.1 28.49 27.63 38.28 5.36-21.58 10.83-43.12 16.09-64.68.55-2.26 4.15-1.74 3.6.53-2.23 9.16-4.47 18.32-6.7 27.47 10.5-2.72 20.56-6.76 29.98-11.92.4 1.14.8 2.28 1.19 3.42a135.445 135.445 0 01-32.14 12.46c-2.89 11.83-5.77 23.66-8.66 35.49.12.49-.03 1.01-.35 1.42-2.45 10.06-4.91 20.12-7.35 30.19-.27 1.1-.52 2.19-.79 3.29 17.76.21 34.17-7.26 48.94-16.53 5.56-3.49 10.99-7.2 16.3-11.08.33 1.42.65 2.84.97 4.25-19.91 14.87-42.69 27.39-67.07 26.96-4.83 20.28-9.27 40.61-13.22 61.02 33.68-2.65 62.38-22.5 88.18-43.39.18 1.41.36 2.81.53 4.21-26.17 20.95-55.28 40.6-89.42 42.88-1.7 8.92-3.31 17.84-4.8 26.8.03.07.05.15.08.22.27.77.02 1.43-.43 1.88-.91 5.5-1.77 11.01-2.59 16.52 35.42-7.31 69.4-20.44 100.53-38.45.02 1.39.03 2.77.04 4.15-31.36 17.89-65.52 30.89-101.11 38.12-2.18 14.94-4.06 29.93-5.55 45.01-.35 3.55-.68 7.11-1 10.66 37.14 3.15 72.58-13.13 103.66-32.24-.21 1.55-.43 3.09-.66 4.62-31.17 18.75-66.25 34.31-103.3 31.24-1.31 15.4-2.29 30.83-2.94 46.27 30.6 5.9 61.34 1.42 90.24-8.87-.47 1.47-.95 2.91-1.43 4.35-28.57 9.79-58.87 13.91-88.95 8.19-.86 22.44-1.01 44.91-.48 67.37 8.52-.42 17.04.03 25.56-.27 9.56-.34 18.97-1.98 28.18-4.52 1.65-.45 3.3-.94 4.95-1.44-.88 1.56-1.75 3.06-2.6 4.51-1.06.29-2.11.61-3.17.89-17.67 4.64-34.84 3.51-52.83 4.46.15 5.46.34 10.92.57 16.38-1.22-.49-2.45-1.01-3.7-1.57-.1-2.52-.19-5.04-.28-7.57l-.06-72.27z"/></g><g class="st2"><path class="st6" d="M-494.47 1122.56l-76.64.07-.15-170.03c104.4-112.68 227.45-141.28 282.09-139.31-40.71 170.86-132.99 262.1-205.3 309.27z"/><path class="st3" d="M-565.86 1068.59c-1.78 2.17-3.53 4.37-5.29 6.56l-.01-6.02c14.42-17.69 29.35-34.97 44.82-51.75a696.264 696.264 0 0128.67-129.59c1.69-1.2 3.39-2.39 5.08-3.56a690.116 690.116 0 00-29.35 128.43c9.74-10.45 19.71-20.68 29.85-30.75.05-.95.88-1.9 1.95-1.94 4.92-4.86 9.87-9.69 14.87-14.46 13.16-40.02 28.46-79.3 45.84-117.65 1.75-.82 3.5-1.63 5.25-2.42-17.1 37.37-32.22 75.62-45.29 114.6 4.22-3.96 8.47-7.9 12.75-11.8 27.53-25.03 56.28-48.73 85.26-72.14-5.62-17-4.49-33.93.05-50.35 1.42-.42 2.83-.82 4.24-1.21-4.71 15.96-6.2 32.44-1.14 49.03 17.98-14.5 36.03-28.91 53.91-43.46 1.87-1.52 4.53 1.16 2.64 2.7-7.6 6.18-15.19 12.36-22.79 18.54 10.4 4.34 21.26 7.31 32.3 8.95-.38 1.2-.77 2.39-1.16 3.58a141.2 141.2 0 01-34.43-9.85l-29.44 23.95c-.21.48-.66.82-1.18.96-8.34 6.79-16.69 13.58-25.03 20.38-.91.74-1.81 1.49-2.71 2.23 14.57 11.32 32.85 15.43 50.9 17.03 6.79.6 13.61.94 20.44 1.06-.62 1.38-1.24 2.76-1.86 4.12-25.82-.18-52.53-4.11-72.45-19.77-16.73 13.75-33.16 27.8-49.24 42.23 29.54 18.94 65.77 20.51 100.24 19.41-.73 1.28-1.47 2.55-2.21 3.81-34.81.92-71.25-1.07-100.94-20.61-7 6.32-13.94 12.7-20.79 19.17-.03.08-.05.15-.08.23-.26.8-.88 1.2-1.53 1.29-4.2 3.98-8.37 8-12.52 12.05 33.92 16.17 70.29 26.63 107.37 31.25-.86 1.16-1.71 2.31-2.57 3.46-37.19-4.87-73.63-15.54-107.64-31.89-11.18 11-22.15 22.24-32.84 33.78a1178.4 1178.4 0 00-7.52 8.2c28.77 25.91 68.33 34.67 106.06 38.35-1.15 1.15-2.29 2.28-3.44 3.41-37.57-4.04-76.38-13.17-105.14-38.96a1124.893 1124.893 0 00-31.47 36.47c21.63 24.08 49.89 39.67 80.28 49.28-1.31.92-2.62 1.82-3.92 2.7-29.8-9.81-57.47-25.42-78.79-49.03z"/></g></g><linearGradient id="SVGID_3_" gradientUnits="userSpaceOnUse" x1="65.256" y1="983.734" x2="65.256" y2="1007.798"><stop offset="0" stop-color="#ff636e"/><stop offset="1" stop-color="#f98d6c"/></linearGradient><path d="M47.92 997.83c0-9.56 7.78-17.34 17.34-17.34 9.56 0 17.34 7.78 17.34 17.34s-7.78 17.34-17.34 17.34c-9.57.01-17.34-7.77-17.34-17.34zm7.75 0c0 5.29 4.3 9.59 9.59 9.59s9.59-4.3 9.59-9.59-4.3-9.59-9.59-9.59-9.59 4.31-9.59 9.59z" fill="url(#SVGID_3_)"/><linearGradient id="SVGID_4_" gradientUnits="userSpaceOnUse" x1="946.904" y1="24.242" x2="946.904" y2="48.306"><stop offset="0" stop-color="#ff636e"/><stop offset="1" stop-color="#f98d6c"/></linearGradient><path d="M929.56 38.34c0-9.56 7.78-17.34 17.34-17.34 9.56 0 17.34 7.78 17.34 17.34 0 9.56-7.78 17.34-17.34 17.34-9.56 0-17.34-7.77-17.34-17.34zm7.75 0c0 5.29 4.3 9.59 9.59 9.59s9.59-4.3 9.59-9.59-4.3-9.59-9.59-9.59c-5.28 0-9.59 4.3-9.59 9.59z" fill="url(#SVGID_4_)"/><linearGradient id="SVGID_5_" gradientUnits="userSpaceOnUse" x1="1528.777" y1="1010.665" x2="1528.777" y2="1034.73"><stop offset="0" stop-color="#ff636e"/><stop offset="1" stop-color="#f98d6c"/></linearGradient><path d="M1511.44 1024.77c0-9.56 7.78-17.34 17.34-17.34 9.56 0 17.34 7.78 17.34 17.34 0 9.56-7.78 17.34-17.34 17.34-9.56 0-17.34-7.78-17.34-17.34zm7.75 0c0 5.29 4.3 9.59 9.59 9.59s9.59-4.3 9.59-9.59-4.3-9.59-9.59-9.59-9.59 4.3-9.59 9.59z" fill="url(#SVGID_5_)"/><path class="st6" d="M830.05 167.97v-29.28c0-1.24-1.01-2.24-2.24-2.24s-2.24 1.01-2.24 2.24v29.28c0 1.24 1.01 2.24 2.24 2.24 1.23.01 2.24-1 2.24-2.24z"/><path class="st6" d="M842.44 151.09h-29.28c-1.24 0-2.24 1.01-2.24 2.24 0 1.24 1.01 2.24 2.24 2.24h29.28c1.24 0 2.24-1.01 2.24-2.24.01-1.24-1-2.24-2.24-2.24zM328 107.85V84.93c0-.97-.79-1.76-1.76-1.76s-1.76.79-1.76 1.76v22.91c0 .97.79 1.76 1.76 1.76s1.76-.78 1.76-1.75z"/><path class="st6" d="M337.7 94.63h-22.91c-.97 0-1.76.79-1.76 1.76s.79 1.76 1.76 1.76h22.91c.97 0 1.76-.79 1.76-1.76a1.77 1.77 0 00-1.76-1.76zm98.47 979.51v-22.91c0-.97-.79-1.76-1.76-1.76s-1.76.79-1.76 1.76v22.91c0 .97.79 1.76 1.76 1.76s1.76-.79 1.76-1.76z"/><path class="st6" d="M445.87 1060.93h-22.91c-.97 0-1.76.79-1.76 1.76s.79 1.76 1.76 1.76h22.91c.97 0 1.76-.79 1.76-1.76a1.77 1.77 0 00-1.76-1.76z"/></g></svg>