<?xml version="1.0" encoding="utf-8"?>
<!-- Generator: Adobe Illustrator 24.2.3, SVG Export Plug-In . SVG Version: 6.00 Build 0)  -->
<svg version="1.1" id="Layer_1" xmlns="http://www.w3.org/2000/svg" xmlns:xlink="http://www.w3.org/1999/xlink" x="0px" y="0px"
	 viewBox="0 0 1705.69 1097.97" style="enable-background:new 0 0 1705.69 1097.97;" xml:space="preserve">
<style type="text/css">
	.st0{display:none;}
	.st1{display:inline;fill:#EFF1FD;}
	.st2{display:inline;}
	.st3{fill:#FFFFFF;}
	.st4{fill:url(#SVGID_1_);}
	.st5{fill:url(#SVGID_2_);}
	.st6{fill:#6883DE;}
	.st7{fill:url(#SVGID_3_);}
	.st8{fill:url(#SVGID_4_);}
	.st9{fill:url(#SVGID_5_);}
</style>
<g id="bg_x5F_obj">
	<g class="st0">
		<path class="st1" d="M-571.85,844.69c220.11-22.03,391.97-207.8,391.97-433.72c0-225.91-171.86-411.69-391.97-433.72
			L-571.85,844.69z"/>
		<g class="st2">
			<path class="st3" d="M-554.18-20.61c-2.66-0.38-5.33-0.73-8.01-1.06l-9.66,48.09v40.96L-554.18-20.61z"/>
			<path class="st3" d="M-523.16-15.06c-2.62-0.57-5.26-1.12-7.9-1.64l-40.8,203.13l0,40.96L-523.16-15.06z"/>
			<path class="st3" d="M-492.59-7.28c-2.58-0.76-5.18-1.5-7.78-2.21l-71.48,355.91v40.96L-492.59-7.28z"/>
			<path class="st3" d="M-462.47,2.8c-2.54-0.96-5.1-1.89-7.67-2.8l-101.71,506.43v40.96L-462.47,2.8z"/>
			<path class="st3" d="M-432.83,15.21c-2.5-1.16-5.01-2.3-7.54-3.41l-131.48,654.64v40.96L-432.83,15.21z"/>
			<path class="st3" d="M-411.09,26.03l-160.76,800.41v18.25c1.56-0.16,3.11-0.32,4.66-0.49l163.51-814.12
				C-406.14,28.7-408.61,27.35-411.09,26.03z"/>
			<path class="st3" d="M-375.05,47.52c-2.41-1.6-4.84-3.17-7.28-4.72l-160.26,797.95c2.85-0.48,5.7-0.99,8.53-1.53L-375.05,47.52z"
				/>
			<path class="st3" d="M-346.98,67.79c-2.36-1.85-4.73-3.67-7.13-5.47L-509.04,833.7c2.91-0.73,5.8-1.49,8.68-2.28L-346.98,67.79z"
				/>
			<path class="st3" d="M-319.55,91.2c-2.3-2.13-4.62-4.23-6.96-6.31l-148.36,738.7c2.97-1.01,5.92-2.06,8.86-3.13L-319.55,91.2z"/>
			<path class="st3" d="M-292.84,118.2c-2.23-2.46-4.48-4.89-6.76-7.29L-440,809.97c3.04-1.34,6.05-2.71,9.05-4.12L-292.84,118.2z"
				/>
			<path class="st3" d="M-266.99,149.5c-2.14-2.85-4.32-5.68-6.52-8.48l-130.79,651.2c3.12-1.74,6.22-3.51,9.3-5.32L-266.99,149.5z"
				/>
			<path class="st3" d="M-242.23,186.21c-2.03-3.37-4.1-6.71-6.22-10.01l-119.13,593.14c3.23-2.24,6.44-4.53,9.61-6.86
				L-242.23,186.21z"/>
			<path class="st3" d="M-218.95,230.35c-1.87-4.09-3.79-8.16-5.78-12.18l-104.74,521.49c3.39-2.96,6.74-5.97,10.04-9.03
				L-218.95,230.35z"/>
			<path class="st3" d="M-198.03,286.14c-1.59-5.32-3.27-10.59-5.05-15.82l-86.27,429.52c3.67-4.14,7.25-8.35,10.76-12.63
				L-198.03,286.14z"/>
			<path class="st3" d="M-182.1,366.84c-0.84-8.37-1.92-16.67-3.23-24.89l-60.03,298.9c4.38-7.05,8.57-14.23,12.55-21.54
				L-182.1,366.84z"/>
		</g>
	</g>
	<g class="st0">
		<g class="st2">
			
				<linearGradient id="SVGID_1_" gradientUnits="userSpaceOnUse" x1="8937.8691" y1="-414.535" x2="9400.8564" y2="-414.535" gradientTransform="matrix(-0.9636 0.2673 0.2673 0.9636 8606.3662 -995.3028)">
				<stop  offset="0" style="stop-color:#FF636E"/>
				<stop  offset="1" style="stop-color:#F98D6C"/>
			</linearGradient>
			<path class="st4" d="M-265.73,1122.36l-284.76,0.25c3.29-18.96,11.46-41.42,27.92-67.19
				c171.71-125.82,341.14-102.99,401.43-76.12C-167.27,1044.31-217.12,1090.13-265.73,1122.36z"/>
			<path class="st3" d="M-149.4,988.96c-9.36,2.89-18.71,5.78-28.07,8.67c8.02,7.91,16.99,14.73,26.62,20.38
				c-0.81,0.97-1.61,1.93-2.42,2.89c-10.23-6.07-19.75-13.44-28.25-22.01c-12.09,3.73-24.18,7.47-36.26,11.2
				c-0.37,0.37-0.91,0.51-1.45,0.45c-10.28,3.18-20.56,6.35-30.84,9.54c-1.12,0.35-2.23,0.7-3.35,1.05
				c9.28,15.94,24.7,26.59,40.84,34.82c6.07,3.09,12.28,5.96,18.57,8.63c-1.09,1.05-2.18,2.09-3.27,3.13
				c-23.88-9.82-47.18-23.46-59.8-45.42c-20.66,6.5-41.15,13.38-61.46,20.75c20.32,28.62,53.33,43.62,85.71,55.49
				c-1.16,0.91-2.31,1.82-3.47,2.71c-32.63-12.16-65.68-27.64-85.91-56.86c-8.85,3.24-17.67,6.57-26.45,10.01
				c-0.05,0.06-0.11,0.12-0.16,0.19c-0.54,0.65-1.26,0.78-1.9,0.62c-5.39,2.12-10.76,4.29-16.12,6.5
				c21.64,23.57,46.48,43.95,73.54,60.69l-7.04,0.01c-25.76-16.55-49.43-36.4-70.18-59.15c-14.48,6.03-28.85,12.34-43.09,19.05
				c-3.35,1.58-6.7,3.18-10.04,4.79c6.57,13.45,15.6,25.12,26.14,35.39l-5.25,0c-9.7-9.89-18.03-21.03-24.28-33.74
				c-14.43,7.04-28.71,14.4-42.82,22.05c1.46,4.01,3.09,7.92,4.86,11.74l-4.15,0c-1.46-3.24-2.82-6.54-4.05-9.91
				c-5.94,3.25-11.85,6.57-17.73,9.93l-7.65,0.01c4.9-2.84,9.81-5.64,14.76-8.41c21.75-12.15,43.91-23.58,66.43-34.25
				c21.5-38.85,46.65-75.49,75.05-109.47c2.02-0.48,4.04-0.95,6.04-1.4c-28.44,33.54-53.67,69.76-75.25,108.13
				c12.94-6.04,26.01-11.81,39.18-17.36c0.4-0.86,1.53-1.43,2.53-1.07c6.38-2.67,12.77-5.3,19.2-7.85
				c27.17-32.2,56.05-62.9,86.51-91.97c1.94-0.11,3.86-0.21,5.77-0.29c-29.83,28.26-58.16,58.08-84.86,89.35
				c5.4-2.1,10.81-4.16,16.24-6.18c34.89-12.92,70.42-24.15,106.05-35.02c1.14-17.87,8.53-33.15,18.87-46.68
				c1.48,0.14,2.93,0.3,4.38,0.46c-10.34,13.04-17.88,27.77-19.4,45.04c22.1-6.73,44.22-13.34,66.25-20.14
				C-148.54,984.76-147.07,988.25-149.4,988.96z"/>
		</g>
		<g class="st2">
			
				<linearGradient id="SVGID_2_" gradientUnits="userSpaceOnUse" x1="9530.0166" y1="702.3563" x2="9396.6758" y2="270.791" gradientTransform="matrix(-0.996 0.0893 0.0893 0.996 8857.8809 -452.2748)">
				<stop  offset="0" style="stop-color:#FF636E"/>
				<stop  offset="1" style="stop-color:#F98D6C"/>
			</linearGradient>
			<path class="st5" d="M-571.45,737.59c23.83-36.37,49.17-61.55,67.92-74.73c117.81,267.65-21.19,442.31-26.17,449.72
				c0,0-17.8,3.4-41.43-7.31L-571.45,737.59z"/>
			<path class="st3" d="M-571.19,1025.57c0.75-22.79,2.21-45.55,4.4-68.25c-1.51-2.6-3-5.21-4.47-7.82l-0.01-7.47
				c1.68,3.05,3.37,6.08,5.1,9.11c1.4-13.68,3.09-27.33,5.02-40.94c-0.51-0.75-0.43-1.97,0.37-2.62c0.95-6.59,1.93-13.17,3-19.74
				c-4.8-13.98-9.32-28.06-13.57-42.21l-0.01-12.95c4.6,15.97,9.54,31.84,14.85,47.6c0.94-5.5,1.9-10.99,2.92-16.47
				c6.56-35.2,14.84-70.1,23.46-104.91c-14.19-9.77-23.17-23.42-29.24-38.65c0.85-1.15,1.7-2.28,2.54-3.39
				c5.66,14.98,14.1,28.49,27.63,38.28c5.36-21.58,10.83-43.12,16.09-64.68c0.55-2.26,4.15-1.74,3.6,0.53
				c-2.23,9.16-4.47,18.32-6.7,27.47c10.5-2.72,20.56-6.76,29.98-11.92c0.4,1.14,0.8,2.28,1.19,3.42
				c-10.07,5.46-20.86,9.68-32.14,12.46c-2.89,11.83-5.77,23.66-8.66,35.49c0.12,0.49-0.03,1.01-0.35,1.42
				c-2.45,10.06-4.91,20.12-7.35,30.19c-0.27,1.1-0.52,2.19-0.79,3.29c17.76,0.21,34.17-7.26,48.94-16.53
				c5.56-3.49,10.99-7.2,16.3-11.08c0.33,1.42,0.65,2.84,0.97,4.25c-19.91,14.87-42.69,27.39-67.07,26.96
				c-4.83,20.28-9.27,40.61-13.22,61.02c33.68-2.65,62.38-22.5,88.18-43.39c0.18,1.41,0.36,2.81,0.53,4.21
				c-26.17,20.95-55.28,40.6-89.42,42.88c-1.7,8.92-3.31,17.84-4.8,26.8c0.03,0.07,0.05,0.15,0.08,0.22
				c0.27,0.77,0.02,1.43-0.43,1.88c-0.91,5.5-1.77,11.01-2.59,16.52c35.42-7.31,69.4-20.44,100.53-38.45
				c0.02,1.39,0.03,2.77,0.04,4.15c-31.36,17.89-65.52,30.89-101.11,38.12c-2.18,14.94-4.06,29.93-5.55,45.01
				c-0.35,3.55-0.68,7.11-1,10.66c37.14,3.15,72.58-13.13,103.66-32.24c-0.21,1.55-0.43,3.09-0.66,4.62
				c-31.17,18.75-66.25,34.31-103.3,31.24c-1.31,15.4-2.29,30.83-2.94,46.27c30.6,5.9,61.34,1.42,90.24-8.87
				c-0.47,1.47-0.95,2.91-1.43,4.35c-28.57,9.79-58.87,13.91-88.95,8.19c-0.86,22.44-1.01,44.91-0.48,67.37
				c8.52-0.42,17.04,0.03,25.56-0.27c9.56-0.34,18.97-1.98,28.18-4.52c1.65-0.45,3.3-0.94,4.95-1.44c-0.88,1.56-1.75,3.06-2.6,4.51
				c-1.06,0.29-2.11,0.61-3.17,0.89c-17.67,4.64-34.84,3.51-52.83,4.46c0.15,5.46,0.34,10.92,0.57,16.38
				c-1.22-0.49-2.45-1.01-3.7-1.57c-0.1-2.52-0.19-5.04-0.28-7.57L-571.19,1025.57z"/>
		</g>
		<g class="st2">
			<path class="st6" d="M-494.47,1122.56l-76.64,0.07l-0.15-170.03c104.4-112.68,227.45-141.28,282.09-139.31
				C-329.88,984.15-422.16,1075.39-494.47,1122.56z"/>
			<path class="st3" d="M-565.86,1068.59c-1.78,2.17-3.53,4.37-5.29,6.56l-0.01-6.02c14.42-17.69,29.35-34.97,44.82-51.75
				c5.41-44.07,15.03-87.45,28.67-129.59c1.69-1.2,3.39-2.39,5.08-3.56c-13.84,41.74-23.69,84.77-29.35,128.43
				c9.74-10.45,19.71-20.68,29.85-30.75c0.05-0.95,0.88-1.9,1.95-1.94c4.92-4.86,9.87-9.69,14.87-14.46
				c13.16-40.02,28.46-79.3,45.84-117.65c1.75-0.82,3.5-1.63,5.25-2.42c-17.1,37.37-32.22,75.62-45.29,114.6
				c4.22-3.96,8.47-7.9,12.75-11.8c27.53-25.03,56.28-48.73,85.26-72.14c-5.62-17-4.49-33.93,0.05-50.35
				c1.42-0.42,2.83-0.82,4.24-1.21c-4.71,15.96-6.2,32.44-1.14,49.03c17.98-14.5,36.03-28.91,53.91-43.46
				c1.87-1.52,4.53,1.16,2.64,2.7c-7.6,6.18-15.19,12.36-22.79,18.54c10.4,4.34,21.26,7.31,32.3,8.95c-0.38,1.2-0.77,2.39-1.16,3.58
				c-11.76-1.8-23.34-5.08-34.43-9.85c-9.81,7.98-19.63,15.97-29.44,23.95c-0.21,0.48-0.66,0.82-1.18,0.96
				c-8.34,6.79-16.69,13.58-25.03,20.38c-0.91,0.74-1.81,1.49-2.71,2.23c14.57,11.32,32.85,15.43,50.9,17.03
				c6.79,0.6,13.61,0.94,20.44,1.06c-0.62,1.38-1.24,2.76-1.86,4.12c-25.82-0.18-52.53-4.11-72.45-19.77
				c-16.73,13.75-33.16,27.8-49.24,42.23c29.54,18.94,65.77,20.51,100.24,19.41c-0.73,1.28-1.47,2.55-2.21,3.81
				c-34.81,0.92-71.25-1.07-100.94-20.61c-7,6.32-13.94,12.7-20.79,19.17c-0.03,0.08-0.05,0.15-0.08,0.23
				c-0.26,0.8-0.88,1.2-1.53,1.29c-4.2,3.98-8.37,8-12.52,12.05c33.92,16.17,70.29,26.63,107.37,31.25
				c-0.86,1.16-1.71,2.31-2.57,3.46c-37.19-4.87-73.63-15.54-107.64-31.89c-11.18,11-22.15,22.24-32.84,33.78
				c-2.52,2.72-5.02,5.45-7.52,8.2c28.77,25.91,68.33,34.67,106.06,38.35c-1.15,1.15-2.29,2.28-3.44,3.41
				c-37.57-4.04-76.38-13.17-105.14-38.96c-10.75,11.93-21.24,24.09-31.47,36.47c21.63,24.08,49.89,39.67,80.28,49.28
				c-1.31,0.92-2.62,1.82-3.92,2.7C-516.87,1107.81-544.54,1092.2-565.86,1068.59z"/>
		</g>
	</g>
	<g>
		<linearGradient id="SVGID_3_" gradientUnits="userSpaceOnUse" x1="65.2559" y1="983.7335" x2="65.2559" y2="1007.7979">
			<stop  offset="0" style="stop-color:#FF636E"/>
			<stop  offset="1" style="stop-color:#F98D6C"/>
		</linearGradient>
		<path class="st7" d="M47.92,997.83c0-9.56,7.78-17.34,17.34-17.34c9.56,0,17.34,7.78,17.34,17.34s-7.78,17.34-17.34,17.34
			C55.69,1015.18,47.92,1007.4,47.92,997.83z M55.67,997.83c0,5.29,4.3,9.59,9.59,9.59c5.29,0,9.59-4.3,9.59-9.59
			c0-5.29-4.3-9.59-9.59-9.59C59.97,988.24,55.67,992.55,55.67,997.83z"/>
	</g>
	<g>
		<linearGradient id="SVGID_4_" gradientUnits="userSpaceOnUse" x1="946.9041" y1="24.2419" x2="946.9041" y2="48.3064">
			<stop  offset="0" style="stop-color:#FF636E"/>
			<stop  offset="1" style="stop-color:#F98D6C"/>
		</linearGradient>
		<path class="st8" d="M929.56,38.34c0-9.56,7.78-17.34,17.34-17.34c9.56,0,17.34,7.78,17.34,17.34c0,9.56-7.78,17.34-17.34,17.34
			C937.34,55.68,929.56,47.91,929.56,38.34z M937.31,38.34c0,5.29,4.3,9.59,9.59,9.59c5.29,0,9.59-4.3,9.59-9.59
			c0-5.29-4.3-9.59-9.59-9.59C941.62,28.75,937.31,33.05,937.31,38.34z"/>
	</g>
	<g>
		<linearGradient id="SVGID_5_" gradientUnits="userSpaceOnUse" x1="1528.7772" y1="1010.6652" x2="1528.7772" y2="1034.7296">
			<stop  offset="0" style="stop-color:#FF636E"/>
			<stop  offset="1" style="stop-color:#F98D6C"/>
		</linearGradient>
		<path class="st9" d="M1511.44,1024.77c0-9.56,7.78-17.34,17.34-17.34c9.56,0,17.34,7.78,17.34,17.34
			c0,9.56-7.78,17.34-17.34,17.34C1519.22,1042.11,1511.44,1034.33,1511.44,1024.77z M1519.19,1024.77c0,5.29,4.3,9.59,9.59,9.59
			c5.29,0,9.59-4.3,9.59-9.59c0-5.29-4.3-9.59-9.59-9.59C1523.49,1015.18,1519.19,1019.48,1519.19,1024.77z"/>
	</g>
	<g>
		<path class="st6" d="M830.05,167.97l0-29.28c0-1.24-1.01-2.24-2.24-2.24s-2.24,1.01-2.24,2.24l0,29.28c0,1.24,1.01,2.24,2.24,2.24
			C829.04,170.22,830.05,169.21,830.05,167.97z"/>
		<path class="st6" d="M842.44,151.09h-29.28c-1.24,0-2.24,1.01-2.24,2.24c0,1.24,1.01,2.24,2.24,2.24h29.28
			c1.24,0,2.24-1.01,2.24-2.24C844.69,152.09,843.68,151.09,842.44,151.09z"/>
	</g>
	<g>
		<path class="st6" d="M328,107.85V84.93c0-0.97-0.79-1.76-1.76-1.76c-0.97,0-1.76,0.79-1.76,1.76v22.91c0,0.97,0.79,1.76,1.76,1.76
			C327.21,109.6,328,108.82,328,107.85z"/>
		<path class="st6" d="M337.7,94.63h-22.91c-0.97,0-1.76,0.79-1.76,1.76c0,0.97,0.79,1.76,1.76,1.76h22.91
			c0.97,0,1.76-0.79,1.76-1.76C339.45,95.42,338.67,94.63,337.7,94.63z"/>
	</g>
	<g>
		<path class="st6" d="M436.17,1074.14v-22.91c0-0.97-0.79-1.76-1.76-1.76s-1.76,0.79-1.76,1.76v22.91c0,0.97,0.79,1.76,1.76,1.76
			S436.17,1075.11,436.17,1074.14z"/>
		<path class="st6" d="M445.87,1060.93l-22.91,0c-0.97,0-1.76,0.79-1.76,1.76s0.79,1.76,1.76,1.76h22.91c0.97,0,1.76-0.79,1.76-1.76
			C447.62,1061.72,446.84,1060.93,445.87,1060.93z"/>
	</g>
</g>
</svg>
